<?xml version="1.0" standalone="no"?>
<!DOCTYPE svg PUBLIC "-//W3C//DTD SVG 20010904//EN"
 "http://www.w3.org/TR/2001/REC-SVG-20010904/DTD/svg10.dtd">
<svg version="1.0" xmlns="http://www.w3.org/2000/svg"
 width="512.000000pt" height="512.000000pt" viewBox="0 0 512.000000 512.000000"
 preserveAspectRatio="xMidYMid meet">
<metadata>
Created by potrace 1.14, written by Peter Selinger 2001-2017
</metadata>
<g transform="translate(0.000000,512.000000) scale(0.100000,-0.100000)"
fill="#000000" stroke="none">
<path d="M2497 5108 c-9 -7 -84 -146 -165 -308 -82 -162 -160 -316 -175 -342
-14 -27 -23 -48 -20 -48 2 0 -5 -12 -16 -26 -12 -15 -21 -33 -21 -40 0 -23
-29 -16 -78 18 -26 18 -50 32 -54 30 -5 -1 -8 2 -8 7 0 10 -122 88 -128 81 -2
-3 -8 3 -13 13 -6 9 -14 15 -20 12 -5 -4 -9 -2 -9 4 0 6 -15 18 -32 27 -18 9
-35 20 -38 24 -4 6 -130 88 -205 133 -11 7 -22 14 -25 17 -12 12 -97 66 -122
77 -14 6 -29 9 -32 6 -3 -4 -6 -1 -6 5 0 17 -52 3 -73 -19 -10 -11 -19 -28
-20 -39 -1 -11 -4 -20 -8 -20 -4 0 -4 -12 0 -27 4 -16 7 -59 6 -98 -1 -38 1
-74 4 -80 3 -5 7 -48 8 -95 5 -160 11 -275 13 -280 2 -3 4 -41 6 -85 1 -44 4
-106 7 -137 2 -31 1 -61 -2 -66 -6 -9 -71 -11 -71 -2 0 3 -39 6 -88 7 -48 2
-127 5 -177 8 -49 3 -133 7 -185 9 -52 2 -95 4 -95 6 0 1 -43 4 -95 6 -52 2
-108 5 -125 7 -41 5 -81 -10 -98 -36 -26 -41 -15 -87 41 -169 29 -42 52 -79
52 -82 0 -8 72 -111 82 -117 5 -3 9 -10 9 -15 0 -5 7 -18 17 -30 9 -11 18 -27
20 -35 2 -8 8 -15 13 -17 5 -2 9 -7 9 -12 0 -5 25 -44 55 -88 30 -44 55 -82
55 -85 0 -6 90 -141 99 -147 20 -15 -5 -36 -104 -87 -60 -31 -234 -118 -385
-195 -151 -76 -281 -146 -288 -155 -6 -9 -12 -38 -12 -63 0 -36 5 -51 23 -66
23 -21 172 -96 183 -94 4 1 10 -2 13 -7 3 -5 40 -25 81 -46 41 -21 161 -82
267 -136 106 -54 195 -96 198 -93 3 3 5 0 5 -7 0 -7 4 -10 9 -7 5 3 11 0 14
-8 3 -7 -32 -70 -77 -140 -46 -69 -81 -128 -78 -131 3 -3 0 -5 -6 -5 -12 0
-48 -59 -44 -72 1 -5 -2 -8 -7 -8 -8 0 -68 -86 -80 -115 -2 -5 -12 -18 -22
-29 -10 -10 -16 -23 -13 -27 2 -4 0 -10 -5 -13 -10 -6 -112 -158 -128 -191
-16 -31 -9 -83 15 -108 20 -21 29 -23 134 -21 62 1 113 3 113 4 0 1 43 4 95 5
52 1 95 4 95 5 0 1 38 4 85 6 47 2 128 6 180 9 52 3 124 6 160 7 l65 3 -3 -55
c-1 -30 -4 -98 -6 -150 -2 -52 -5 -95 -6 -95 -1 0 -4 -38 -6 -85 -2 -47 -6
-128 -9 -180 -3 -52 -6 -138 -8 -190 -1 -52 -6 -100 -10 -107 -4 -6 -3 -14 3
-18 6 -4 8 -10 5 -14 -2 -5 7 -18 20 -31 29 -27 99 -35 116 -13 6 7 15 13 19
13 8 0 254 160 277 180 7 5 14 10 17 10 3 0 31 17 63 39 331 222 336 224 349
205 8 -11 18 -24 24 -31 5 -7 10 -19 10 -28 0 -8 5 -15 11 -15 5 0 7 -4 4 -10
-3 -5 -1 -10 4 -10 6 0 10 -3 9 -7 -3 -11 144 -306 157 -315 5 -4 7 -8 3 -8
-4 0 9 -30 29 -67 20 -38 60 -115 90 -173 30 -57 59 -108 66 -112 14 -9 89
-10 112 -2 15 6 50 70 47 87 -1 4 2 7 7 7 4 0 83 150 175 333 91 183 172 342
180 353 14 18 15 18 33 1 11 -9 23 -17 27 -17 4 0 16 -9 28 -20 12 -11 28 -20
35 -20 7 0 13 -5 13 -11 0 -5 5 -7 10 -4 6 3 10 2 10 -4 0 -6 21 -22 48 -37
26 -15 88 -56 139 -90 50 -34 94 -60 97 -57 3 4 6 1 6 -6 0 -7 4 -9 10 -6 5 3
10 2 10 -2 0 -10 149 -110 164 -111 5 0 13 -7 18 -16 5 -9 14 -16 20 -16 6 0
25 -10 42 -23 27 -20 55 -25 106 -18 14 2 50 43 44 52 -2 4 0 10 5 13 5 4 6
18 2 34 -4 15 -7 61 -6 102 2 41 -1 80 -5 85 -4 6 -6 46 -5 90 1 44 -1 85 -4
90 -3 6 -7 48 -8 95 -3 86 -11 251 -16 325 -4 60 -3 62 66 58 34 -2 105 -5
157 -8 52 -3 136 -7 185 -9 50 -2 90 -5 90 -6 0 -3 120 -8 287 -13 116 -3 118
-3 141 22 21 23 26 49 18 99 -1 9 -143 229 -160 249 -6 7 -11 14 -11 16 0 6
-108 170 -125 190 -8 9 -16 20 -16 25 -2 8 -72 119 -125 196 -18 27 -31 52
-29 56 3 4 110 60 240 125 129 65 235 122 235 126 0 5 3 8 8 7 12 -4 286 135
299 152 28 34 3 164 -28 145 -5 -4 -9 -1 -9 5 0 6 -4 9 -9 6 -5 -4 -11 -3 -13
2 -4 10 -361 188 -370 184 -5 -1 -8 3 -8 9 0 5 -4 7 -10 4 -6 -3 -10 -1 -10 4
0 6 -5 11 -11 11 -6 0 -24 9 -40 21 -16 11 -29 17 -29 13 0 -4 -8 0 -17 8 -10
8 -66 38 -125 67 -60 28 -108 53 -108 56 0 2 24 40 53 83 72 109 76 115 84
132 4 8 9 17 12 20 7 5 37 52 156 235 42 66 98 152 123 190 46 69 58 116 39
143 -5 6 -6 12 -2 12 5 0 0 9 -10 20 -10 11 -21 17 -26 15 -4 -3 -10 -1 -13 3
-3 5 -27 7 -53 5 -27 -3 -86 -6 -133 -8 -47 -1 -85 -4 -85 -5 0 -1 -38 -4 -85
-6 -86 -4 -227 -11 -380 -19 -47 -2 -100 -6 -117 -8 -20 -3 -34 0 -34 7 -4 36
-4 102 1 111 2 6 6 46 7 90 2 76 7 163 18 370 3 50 6 128 8 175 1 47 6 90 9
96 10 16 -34 99 -52 99 -8 0 -21 4 -28 9 -7 4 -19 2 -27 -4 -8 -7 -15 -10 -15
-7 0 9 -35 -12 -180 -107 -130 -86 -292 -191 -375 -245 -22 -14 -44 -29 -50
-34 -44 -33 -117 -77 -127 -77 -8 0 -32 39 -56 88 -49 101 -74 146 -85 150 -4
2 -5 8 -1 13 3 5 0 9 -5 9 -6 0 -10 3 -9 8 3 10 -54 126 -64 130 -5 2 -6 8 -2
13 3 5 0 9 -5 9 -6 0 -10 3 -9 8 3 10 -94 206 -104 210 -4 2 -6 8 -2 13 3 5 0
9 -5 9 -6 0 -10 3 -9 8 4 15 -43 102 -61 112 -27 14 -104 13 -124 -2z"/>
<path d="M587 4794 c-31 -17 -29 -10 -32 -124 -1 -47 -3 -90 -4 -95 -1 -7 -35
-10 -88 -10 -49 1 -96 -1 -106 -3 -44 -11 -58 -109 -21 -145 20 -19 35 -22
113 -23 50 -1 95 -2 99 -3 4 0 7 -44 7 -97 -1 -86 1 -98 21 -118 16 -16 33
-21 61 -20 77 3 86 17 89 139 1 44 2 85 3 90 1 7 38 10 97 10 78 0 98 3 115
18 21 20 20 17 23 69 1 22 -5 45 -15 59 -16 21 -26 23 -116 25 -54 1 -100 2
-103 3 -3 0 -5 44 -5 96 1 80 -2 99 -17 115 -10 11 -22 20 -26 21 -53 6 -71 5
-95 -7z"/>
<path d="M4187 4742 c-27 -6 -46 -52 -40 -97 3 -22 8 -42 12 -45 3 -3 28 -29
55 -57 l49 -52 -60 -64 c-57 -61 -59 -66 -58 -112 2 -58 25 -79 88 -81 35 -1
47 6 103 59 l64 59 63 -59 c57 -53 68 -59 106 -58 61 0 89 30 86 91 -3 42 -8
52 -61 105 l-58 59 57 58 c32 32 54 61 51 65 -4 4 -3 7 2 7 8 0 11 52 5 92 -2
15 -58 34 -95 32 -32 -1 -48 -11 -97 -60 l-58 -58 -23 20 c-12 10 -33 31 -46
47 -40 46 -86 61 -145 49z"/>
<path d="M4427 954 c-31 -17 -29 -10 -32 -124 -1 -47 -3 -90 -4 -95 -1 -7 -35
-10 -88 -10 -49 1 -96 -1 -106 -3 -44 -11 -58 -109 -21 -145 20 -19 35 -22
113 -23 50 -1 95 -2 99 -3 4 0 7 -44 7 -97 -1 -86 1 -98 21 -118 16 -16 33
-21 61 -20 77 3 86 17 89 139 1 44 2 85 3 90 1 7 38 10 97 10 78 0 98 3 115
18 21 20 20 17 23 69 1 22 -5 45 -15 59 -16 21 -26 23 -116 25 -54 1 -100 2
-103 3 -3 0 -5 44 -5 96 1 80 -2 99 -17 115 -10 11 -22 20 -26 21 -53 6 -71 5
-95 -7z"/>
<path d="M425 873 c-14 -8 -26 -19 -26 -26 -9 -83 -5 -93 64 -164 l50 -52 -59
-63 c-52 -56 -59 -69 -59 -103 1 -68 31 -95 99 -90 32 2 48 13 97 61 l58 58
60 -57 c33 -31 63 -58 68 -58 68 -11 122 8 124 44 1 12 2 35 4 51 2 23 -10 41
-58 92 l-60 64 57 59 c31 33 56 63 57 68 14 108 -16 138 -124 124 -5 -1 -35
-26 -68 -57 l-59 -57 -63 60 c-53 50 -69 59 -100 59 -20 0 -48 -6 -62 -13z"/>
</g>
</svg>
